<svg xmlns="http://www.w3.org/2000/svg" viewBox="0 0 48 48" class="icon-social" aria-hidden="true"><path fill-rule="evenodd" d="M24 4C12.954 4 4 12.954 4 24c0 8.837 5.733 16.327 13.678 18.972.999.183 1.366-.434 1.366-.965 0-.474-.018-2.04-.026-3.706-5.561 1.208-6.735-2.342-6.735-2.342-.909-2.31-2.218-2.924-2.218-2.924-1.813-1.24.138-1.215.138-1.215 2.003.14 3.058 2.058 3.058 2.058 1.78 3.05 4.669 2.169 5.808 1.659.18-1.29.697-2.17 1.268-2.668-4.439-.505-9.101-2.22-9.101-9.883 0-2.182.779-3.968 2.056-5.367-.207-.505-.892-2.538.195-5.291 0 0 1.677-.537 5.49 2.047A19.11 19.11 0 0 1 24 13.898c1.698.008 3.408.23 5.003.674 3.81-2.584 5.484-2.047 5.484-2.047 1.09 2.753.405 4.786.198 5.291 1.28 1.399 2.054 3.185 2.054 5.367 0 7.68-4.67 9.373-9.122 9.867.717.617 1.356 1.836 1.356 3.7 0 2.669-.024 4.822-.024 5.477 0 .535.36 1.157 1.374.961C38.274 40.321 44 32.836 44 24c0-11.046-8.954-20-20-20z"/></svg>
